<svg width="24" height="24" viewBox="0 0 24 24" fill="none" xmlns="http://www.w3.org/2000/svg">
<path d="M17.3972 14.3542C17.1052 14.2042 15.6508 13.4917 15.3802 13.3953C15.1097 13.2935 14.9115 13.2453 14.716 13.5453C14.5178 13.8426 13.9553 14.5042 13.7785 14.7051C13.6071 14.9033 13.4329 14.9274 13.141 14.7801C11.4053 13.9123 10.2669 13.2319 9.12318 11.2685C8.82051 10.7462 9.42586 10.7837 9.99103 9.65607C10.0875 9.45785 10.0392 9.28911 9.96424 9.13911C9.88924 8.98911 9.29997 7.53734 9.05354 6.94539C8.81515 6.3695 8.56872 6.44986 8.38926 6.43914C8.21784 6.42843 8.0223 6.42843 7.82409 6.42843C7.62588 6.42843 7.30713 6.50343 7.0366 6.79539C6.76607 7.09271 6.00269 7.80788 6.00269 9.25964C6.00269 10.7114 7.06071 12.1176 7.20535 12.3159C7.35535 12.5141 9.28657 15.4926 12.2517 16.7756C14.1267 17.5845 14.8606 17.6542 15.7981 17.5149C16.3686 17.4292 17.5445 16.8024 17.7882 16.1087C18.032 15.4176 18.032 14.8256 17.9597 14.7024C17.8874 14.5712 17.6891 14.4962 17.3972 14.3542Z" fill="#433122" fill-opacity="0.8"/>
<path d="M23.0677 7.34991C22.4624 5.91153 21.5945 4.62048 20.4883 3.51156C19.3821 2.40533 18.091 1.5348 16.6499 0.932131C15.1767 0.313389 13.6125 0 12 0H11.9464C10.3232 0.00803561 8.75094 0.32946 7.27238 0.961595C5.84472 1.5723 4.56438 2.44015 3.46886 3.54638C2.37334 4.65262 1.51353 5.93832 0.918891 7.37134C0.302827 8.85525 -0.00788365 10.4329 0.000151961 12.0561C0.00818757 13.915 0.452825 15.7605 1.28585 17.4105V21.4819C1.28585 22.1622 1.83763 22.714 2.51798 22.714H6.59203C8.24201 23.547 10.0875 23.9917 11.9464 23.9997H12.0027C13.6071 23.9997 15.1634 23.689 16.6285 23.081C18.0615 22.4836 19.3499 21.6265 20.4535 20.531C21.5597 19.4355 22.4302 18.1551 23.0383 16.7275C23.6704 15.2489 23.9918 13.6766 23.9999 12.0534C24.0079 10.4222 23.6918 8.83917 23.0677 7.34991ZM19.0204 19.0819C17.1428 20.9408 14.6518 21.964 12 21.964H11.9545C10.3393 21.956 8.73486 21.5542 7.31792 20.7988L7.09292 20.6783H3.32154V16.9069L3.201 16.6819C2.44566 15.265 2.04388 13.6605 2.03584 12.0454C2.02513 9.37488 3.04565 6.86777 4.91795 4.9794C6.78757 3.09103 9.28664 2.0464 11.9571 2.03569H12.0027C13.3419 2.03569 14.641 2.29551 15.8651 2.80979C17.0598 3.31067 18.1312 4.0312 19.0526 4.95262C19.9713 5.87135 20.6945 6.94545 21.1954 8.14008C21.7151 9.37756 21.9749 10.69 21.9695 12.0454C21.9534 14.7132 20.9061 17.2123 19.0204 19.0819Z" fill="#433122" fill-opacity="0.8"/>
</svg>
